name C:/MyDriveSym/Projects/mobilecap/Data\Session20210823_0001\mocap\ForceDataProcessed\DJ2_forces.mot
datacolumns 28
datarows 13
range 1.16950000 1.17550000
endheader 
time	R_ground_force_vx	R_ground_force_vy	R_ground_force_vz	R_ground_force_px	R_ground_force_py	R_ground_force_pz	R_ground_torque_x	R_ground_torque_y	R_ground_torque_z	L_ground_force_vx	L_ground_force_vy	L_ground_force_vz	L_ground_force_px	L_ground_force_py	L_ground_force_pz	L_ground_torque_x	L_ground_torque_y	L_ground_torque_z	3_ground_force_vx	3_ground_force_vy	3_ground_force_vz	3_ground_force_px	3_ground_force_py	3_ground_force_pz	3_ground_torque_x	3_ground_torque_y	3_ground_torque_z	
          1.16950000	        -73.30948700	         66.45653800	        -11.04857600	         -0.08579000	          0.00600000	         -0.36661100	          0.00000000	          0.19398100	          0.00000000	       -193.66352200	        312.80359200	         48.89313800	         -0.09127600	          0.00600000	         -0.85006500	          0.00000000	         -0.79085400	          0.00000000	          0.00000000	          0.00000000	          0.00000000	          0.00000000	          0.00000000	          0.00000000	          0.00000000	          0.00000000	          0.00000000	
          1.17000000	        -81.42198100	         77.53854600	        -12.85125900	         -0.09418700	          0.00600000	         -0.36745100	          0.00000000	          0.22091600	          0.00000000	       -201.54774400	        323.38726400	         51.30114900	         -0.09146300	          0.00600000	         -0.85009800	          0.00000000	         -0.81151200	          0.00000000	          0.00000000	          0.00000000	          0.00000000	          0.00000000	          0.00000000	          0.00000000	          0.00000000	          0.00000000	          0.00000000	
          1.17050000	        -89.91231800	         89.45653800	        -14.78423300	         -0.10128700	          0.00600000	         -0.36821800	          0.00000000	          0.25003100	          0.00000000	       -209.09898500	        333.37732700	         53.72821500	         -0.09162500	          0.00600000	         -0.85012900	          0.00000000	         -0.83439400	          0.00000000	          0.00000000	          0.00000000	          0.00000000	          0.00000000	          0.00000000	          0.00000000	          0.00000000	          0.00000000	          0.00000000	
          1.17100000	        -98.75358600	        102.21629200	        -16.84793500	         -0.10741600	          0.00600000	         -0.36893100	          0.00000000	          0.28171300	          0.00000000	       -216.26013400	        342.76764500	         56.16672400	         -0.09176800	          0.00600000	         -0.85015700	          0.00000000	         -0.85999400	          0.00000000	          0.00000000	          0.00000000	          0.00000000	          0.00000000	          0.00000000	          0.00000000	          0.00000000	          0.00000000	          0.00000000	
          1.17150000	       -107.91177500	        115.81650500	        -19.04155700	         -0.11280400	          0.00600000	         -0.36960300	          0.00000000	          0.31622500	          0.00000000	       -222.97403700	        351.56798700	         58.60698900	         -0.09190200	          0.00600000	         -0.85018100	          0.00000000	         -0.88857600	          0.00000000	          0.00000000	          0.00000000	          0.00000000	          0.00000000	          0.00000000	          0.00000000	          0.00000000	          0.00000000	          0.00000000	
          1.17200000	       -117.34505700	        130.24783100	        -21.36284300	         -0.11761700	          0.00600000	         -0.37024300	          0.00000000	          0.35373300	          0.00000000	       -229.18799500	        359.80304400	         61.03770000	         -0.09203700	          0.00600000	         -0.85019800	          0.00000000	         -0.92013800	          0.00000000	          0.00000000	          0.00000000	          0.00000000	          0.00000000	          0.00000000	          0.00000000	          0.00000000	          0.00000000	          0.00000000	
          1.17250000	       -127.00301800	        145.49184100	        -23.80789900	         -0.12197900	          0.00600000	         -0.37085900	          0.00000000	          0.39430900	          0.00000000	       -234.85809100	        367.51129200	         63.44637300	         -0.09218300	          0.00600000	         -0.85020800	          0.00000000	         -0.95446400	          0.00000000	          0.00000000	          0.00000000	          0.00000000	          0.00000000	          0.00000000	          0.00000000	          0.00000000	          0.00000000	          0.00000000	
          1.17300000	       -136.82587900	        161.52001200	        -26.37100500	         -0.12598300	          0.00600000	         -0.37145800	          0.00000000	          0.43792900	          0.00000000	       -239.95231400	        374.74325000	         65.81984100	         -0.09234800	          0.00600000	         -0.85020600	          0.00000000	         -0.99124400	          0.00000000	          0.00000000	          0.00000000	          0.00000000	          0.00000000	          0.00000000	          0.00000000	          0.00000000	          0.00000000	          0.00000000	
          1.17350000	       -146.74385400	        178.29321400	        -29.04442100	         -0.12970400	          0.00600000	         -0.37204400	          0.00000000	          0.48445000	          0.00000000	       -244.45169500	        381.55901700	         68.14482900	         -0.09254000	          0.00600000	         -0.85019100	          0.00000000	         -1.03023800	          0.00000000	          0.00000000	          0.00000000	          0.00000000	          0.00000000	          0.00000000	          0.00000000	          0.00000000	          0.00000000	          0.00000000	
          1.17400000	       -156.67689700	        195.76234200	        -31.81828100	         -0.13320100	          0.00600000	         -0.37262200	          0.00000000	          0.53356800	          0.00000000	       -248.34892400	        388.02539800	         70.40853400	         -0.09276400	          0.00600000	         -0.85016000	          0.00000000	         -1.07139400	          0.00000000	          0.00000000	          0.00000000	          0.00000000	          0.00000000	          0.00000000	          0.00000000	          0.00000000	          0.00000000	          0.00000000	
          1.17450000	       -166.53541600	        213.87050200	        -34.68086600	         -0.13652000	          0.00600000	         -0.37319400	          0.00000000	          0.58474000	          0.00000000	       -251.64478700	        394.21290800	         72.59909800	         -0.09302600	          0.00600000	         -0.85011200	          0.00000000	         -1.11485900	          0.00000000	          0.00000000	          0.00000000	          0.00000000	          0.00000000	          0.00000000	          0.00000000	          0.00000000	          0.00000000	          0.00000000	
          1.17500000	       -176.22250700	        232.55678400	        -37.61958600	         -0.13970300	          0.00600000	         -0.37376400	          0.00000000	          0.63708800	          0.00000000	       -254.34364700	        400.19293800	         74.70577600	         -0.09332800	          0.00600000	         -0.85004600	          0.00000000	         -1.16090400	          0.00000000	          0.00000000	          0.00000000	          0.00000000	          0.00000000	          0.00000000	          0.00000000	          0.00000000	          0.00000000	          0.00000000	
          1.17550000	       -185.63784700	        251.76129800	        -40.62271700	         -0.14278100	          0.00600000	         -0.37433200	          0.00000000	          0.68930300	          0.00000000	       -256.44929300	        406.03519400	         76.71877500	         -0.09367300	          0.00600000	         -0.84996200	          0.00000000	         -1.20975000	          0.00000000	          0.00000000	          0.00000000	          0.00000000	          0.00000000	          0.00000000	          0.00000000	          0.00000000	          0.00000000	          0.00000000	
